<?xml version="1.0" encoding="UTF-8" standalone="no"?>
<svg id="svg2" xmlns:rdf="http://www.w3.org/1999/02/22-rdf-syntax-ns#" xmlns="http://www.w3.org/2000/svg" height="119.88mm" width="111.01mm" version="1.1" xmlns:cc="http://creativecommons.org/ns#" xmlns:dc="http://purl.org/dc/elements/1.1/" viewBox="0 0 393.35494 424.77954">
 <g id="layer1" transform="translate(-173.32 -234.26)" stroke="#000" fill="none">
  <path id="path3336" d="m205.71 266.65h328.57v360h-325.71z" stroke-width="1px"/>
  <rect id="table50" height="27.292" width="31.491" y="288.14" x="229.3"/>
  <rect id="table51" height="27.292" width="31.491" y="287.19" x="292.64"/>
  <rect id="table52" height="27.292" width="31.491" y="287.89" x="349.62"/>
  <rect id="table53" height="27.292" width="31.491" y="287.09" x="411.01"/>
  <rect id="table54" height="27.292" width="31.491" y="287.29" x="469.79"/>
  <rect id="table55" height="27.292" width="31.491" y="336.97" x="230.25"/>
  <rect id="table56" height="27.292" width="31.491" y="337.07" x="292.93"/>
  <rect id="table57" height="27.292" width="31.491" y="336.47" x="349.32"/>
  <rect id="table58" height="27.292" width="31.491" y="336.37" x="410.41"/>
  <rect id="table59" height="27.292" width="31.491" y="336.47" x="471.79"/>
  <rect id="table64" height="27.292" width="31.491" y="387.86" x="472.49"/>
  <rect id="table63" height="27.292" width="31.491" y="387.16" x="410.9"/>
  <rect id="table62" height="27.292" width="31.491" y="388.56" x="349.32"/>
  <rect id="table61" height="27.292" width="31.491" y="390.66" x="294.04"/>
  <rect id="table60" height="27.292" width="31.491" y="389.96" x="230.35"/>
  <rect id="table65" height="27.292" width="31.491" y="439.65" x="231.75"/>
  <rect id="table66" height="27.292" width="31.491" y="437.55" x="294.74"/>
  <rect id="table67" height="27.292" width="31.491" y="436.15" x="350.72"/>
  <rect id="table68" height="27.292" width="31.491" y="435.45" x="413.7"/>
  <rect id="table69" height="27.292" width="31.491" y="436.85" x="473.89"/>
  <rect id="table74" height="27.292" width="31.491" y="484.44" x="473.19"/>
  <rect id="table73" height="27.292" width="31.491" y="486.54" x="411.6"/>
  <rect id="table72" height="27.292" width="31.491" y="487.24" x="352.12"/>
  <rect id="table71" height="27.292" width="31.491" y="487.94" x="294.74"/>
  <rect id="table70" height="27.292" width="31.491" y="489.34" x="231.75"/>
  <rect id="table75" height="27.292" width="31.491" y="533.42" x="232.45"/>
  <rect id="table76" height="27.292" width="31.491" y="534.12" x="295.44"/>
  <rect id="table77" height="27.292" width="31.491" y="532.02" x="352.82"/>
  <rect id="table78" height="27.292" width="31.491" y="532.02" x="413.7"/>
  <rect id="table79" height="27.292" width="31.491" y="532.02" x="473.89"/>
  <rect id="table80" height="27.292" width="31.491" y="578.91" x="217.06"/>
  <rect id="table81" height="27.292" width="31.491" y="576.11" x="259.05"/>
  <rect id="table82" height="27.292" width="31.491" y="574.01" x="301.03"/>
  <rect id="table83" height="27.292" width="31.491" y="578.21" x="340.22"/>
  <rect id="table84" height="27.292" width="31.491" y="577.51" x="379.41"/>
  <rect id="table85" height="27.292" width="31.491" y="578.21" x="421.4"/>
  <rect id="table86" height="27.292" width="31.491" y="578.91" x="458.79"/>
  <rect id="table87" height="27.292" width="31.491" y="577.51" x="493.38"/>
 </g>
</svg>
